<?xml version="1.0" encoding="UTF-8" standalone="no"?>
<!-- Created with Inkscape (http://www.inkscape.org/) -->

<svg
   xmlns:dc="http://purl.org/dc/elements/1.1/"
   xmlns:cc="http://creativecommons.org/ns#"
   xmlns:rdf="http://www.w3.org/1999/02/22-rdf-syntax-ns#"
   xmlns:svg="http://www.w3.org/2000/svg"
   xmlns="http://www.w3.org/2000/svg"
   xmlns:sodipodi="http://sodipodi.sourceforge.net/DTD/sodipodi-0.dtd"
   xmlns:inkscape="http://www.inkscape.org/namespaces/inkscape"
   width="117.24633mm"
   height="133.41234mm"
   viewBox="0 0 415.43975 472.72088"
   id="svg2"
   version="1.1"
   inkscape:version="0.91 r13725"
   sodipodi:docname="case.svg">
  <defs
     id="defs4" />
  <sodipodi:namedview
     id="base"
     pagecolor="#ffffff"
     bordercolor="#666666"
     borderopacity="1.0"
     inkscape:pageopacity="0.0"
     inkscape:pageshadow="2"
     inkscape:zoom="0.70710678"
     inkscape:cx="75.013554"
     inkscape:cy="234.22638"
     inkscape:document-units="px"
     inkscape:current-layer="layer1"
     showgrid="false"
     inkscape:snap-bbox="true"
     inkscape:bbox-paths="true"
     inkscape:bbox-nodes="true"
     inkscape:snap-bbox-edge-midpoints="true"
     inkscape:snap-bbox-midpoints="true"
     inkscape:object-paths="true"
     inkscape:snap-intersection-paths="true"
     inkscape:object-nodes="true"
     inkscape:snap-smooth-nodes="true"
     inkscape:snap-midpoints="true"
     showguides="true"
     inkscape:guide-bbox="true"
     fit-margin-top="0"
     fit-margin-left="0"
     fit-margin-right="0"
     fit-margin-bottom="0"
     inkscape:window-width="1301"
     inkscape:window-height="744"
     inkscape:window-x="65"
     inkscape:window-y="24"
     inkscape:window-maximized="1">
    <sodipodi:guide
       position="0.050182132,36.472076"
       orientation="1,0"
       id="guide4270" />
    <sodipodi:guide
       position="308.29855,5.9999995"
       orientation="0,1"
       id="guide4336" />
  </sodipodi:namedview>
  <metadata
     id="metadata7">
    <rdf:RDF>
      <cc:Work
         rdf:about="">
        <dc:format>image/svg+xml</dc:format>
        <dc:type
           rdf:resource="http://purl.org/dc/dcmitype/StillImage" />
        <dc:title></dc:title>
      </cc:Work>
    </rdf:RDF>
  </metadata>
  <g
     inkscape:label="Layer 1"
     inkscape:groupmode="layer"
     id="layer1"
     transform="translate(-31.038118,-103.56059)">
    <g
       id="g4276"
       transform="matrix(2.4602285,0,0,2.4602285,-36.994389,-849.92714)">
      <rect
         y="408.54568"
         x="76.245659"
         height="127.85714"
         width="50"
         id="rect4266"
         style="opacity:1;fill:#4d4d4d;fill-opacity:1;stroke:#4d4b4d;stroke-width:5;stroke-linecap:round;stroke-linejoin:round;stroke-miterlimit:4;stroke-dasharray:none;stroke-dashoffset:0;stroke-opacity:1" />
      <g
         transform="translate(-158.4544,194.53954)"
         id="g4262">
        <path
           style="opacity:1;fill:#b3b3b3;fill-opacity:1;stroke:none;stroke-width:20;stroke-linecap:round;stroke-linejoin:round;stroke-miterlimit:4;stroke-dasharray:none;stroke-dashoffset:0;stroke-opacity:1"
           d="m 303.20006,260.17832 a 51.770317,51.770317 0 0 0 -51.77149,51.76953 51.770317,51.770317 0 0 0 51.77149,51.77148 51.770317,51.770317 0 0 0 51.76953,-51.77148 51.770317,51.770317 0 0 0 -51.76953,-51.76953 z m 0,45.90429 a 5.8670235,5.8670235 0 0 1 5.86718,5.86524 5.8670235,5.8670235 0 0 1 -5.86718,5.86719 5.8670235,5.8670235 0 0 1 -5.86719,-5.86719 5.8670235,5.8670235 0 0 1 5.86719,-5.86524 z"
           id="path4203"
           inkscape:connector-curvature="0" />
        <path
           style="opacity:1;fill:#4d4d4d;fill-opacity:1;stroke:none;stroke-width:20;stroke-linecap:round;stroke-linejoin:round;stroke-miterlimit:4;stroke-dasharray:none;stroke-dashoffset:0;stroke-opacity:1"
           d="m 303.20006,295.91269 a 16.036171,16.036171 0 0 0 -16.03711,16.03516 16.036171,16.036171 0 0 0 16.03711,16.03711 16.036171,16.036171 0 0 0 16.03515,-16.03711 16.036171,16.036171 0 0 0 -16.03515,-16.03516 z m 0,4.67188 a 11.364215,11.364215 0 0 1 11.36328,11.36328 11.364215,11.364215 0 0 1 -11.36328,11.36523 11.364215,11.364215 0 0 1 -11.36524,-11.36523 11.364215,11.364215 0 0 1 11.36524,-11.36328 z"
           id="path4205"
           inkscape:connector-curvature="0" />
      </g>
      <path
         inkscape:connector-curvature="0"
         id="path4268"
         d="m 116.65234,387.5625 a 2.4002401,2.4002401 0 0 0 -0.37304,0.0449 l -85.658206,16.99024 a 2.4002401,2.4002401 0 1 0 0.933594,4.70703 l 82.818362,-16.42774 1.52539,167.35157 -84.183596,-22.73633 a 2.4004368,2.4004368 0 1 0 -1.251953,4.63476 l 87.240229,23.56055 a 2.4002401,2.4002401 0 0 0 3.0254,-2.33789 l -1.58204,-173.41016 a 2.4002401,2.4002401 0 0 0 -2.49414,-2.37695 z"
         style="color:#000000;font-style:normal;font-variant:normal;font-weight:normal;font-stretch:normal;font-size:medium;line-height:normal;font-family:sans-serif;text-indent:0;text-align:start;text-decoration:none;text-decoration-line:none;text-decoration-style:solid;text-decoration-color:#000000;letter-spacing:normal;word-spacing:normal;text-transform:none;direction:ltr;block-progression:tb;writing-mode:lr-tb;baseline-shift:baseline;text-anchor:start;white-space:normal;clip-rule:nonzero;display:inline;overflow:visible;visibility:visible;opacity:1;isolation:auto;mix-blend-mode:normal;color-interpolation:sRGB;color-interpolation-filters:linearRGB;solid-color:#000000;solid-opacity:1;fill:#4d4d4d;fill-opacity:1;fill-rule:evenodd;stroke:none;stroke-width:4.80000019;stroke-linecap:round;stroke-linejoin:round;stroke-miterlimit:4;stroke-dasharray:none;stroke-dashoffset:0;stroke-opacity:1;color-rendering:auto;image-rendering:auto;shape-rendering:auto;text-rendering:auto;enable-background:accumulate" />
      <path
         inkscape:connector-curvature="0"
         id="path4201"
         d="m 27.652922,407.63234 89.092738,-17.67117 0,172.98212 -89.062498,-24.05355 z"
         style="fill:#cccccc;fill-opacity:1;fill-rule:evenodd;stroke:none;stroke-width:1px;stroke-linecap:butt;stroke-linejoin:miter;stroke-opacity:1" />
      <path
         sodipodi:nodetypes="ccccc"
         inkscape:connector-curvature="0"
         id="path4272"
         d="m 118.18785,388.06064 2.58851,2.77792 1.42053,171.63123 -3.15673,3.05472 C 118.75323,506.7107 118.4749,446.48018 118.18785,388.06064 Z"
         style="fill:#4d4d4d;fill-opacity:1;fill-rule:evenodd;stroke:none;stroke-width:1px;stroke-linecap:butt;stroke-linejoin:miter;stroke-opacity:1" />
    </g>
    <g
       transform="translate(3.609858,31.729129)"
       style="font-style:normal;font-weight:normal;font-size:23.15276146px;line-height:0%;font-family:sans-serif;letter-spacing:0px;word-spacing:0px;fill:#000000;fill-opacity:1;stroke:none;stroke-width:1px;stroke-linecap:butt;stroke-linejoin:miter;stroke-opacity:1"
       id="flowRoot4304">
      <path
         d="m 92.155772,538.99023 -2.261012,0 -6.025596,-8.01528 -1.729674,1.53749 0,6.47779 -1.921861,0 0,-16.52799 1.921861,0 0,8.19617 7.495254,-8.19617 2.272317,0 -6.647375,7.17871 6.896086,9.34928 z"
         style="font-style:normal;font-variant:normal;font-weight:normal;font-stretch:normal;font-family:'Open Sans';-inkscape-font-specification:'Open Sans'"
         id="path4339" />
      <path
         d="m 99.3684,539.21634 q -2.747129,0 -4.341143,-1.67315 -1.582708,-1.67315 -1.582708,-4.64638 0,-2.99584 1.469658,-4.75943 1.480963,-1.76359 3.968076,-1.76359 2.328837,0 3.685447,1.53749 1.35661,1.52618 1.35661,4.0359 l 0,1.18703 -8.535321,0 q 0.05653,2.18188 1.096591,3.31239 1.051371,1.1305 2.950621,1.1305 2.000999,0 3.956769,-0.83657 l 0,1.67315 q -0.99484,0.42959 -1.88794,0.61047 -0.8818,0.19219 -2.13666,0.19219 z m -0.508727,-11.27115 q -1.492268,0 -2.385368,0.97224 -0.881795,0.97223 -1.040065,2.6906 l 6.4778,0 q 0,-1.77489 -0.79136,-2.71321 -0.79135,-0.94963 -2.261007,-0.94963 z"
         style="font-style:normal;font-variant:normal;font-weight:normal;font-stretch:normal;font-family:'Open Sans';-inkscape-font-specification:'Open Sans'"
         id="path4341" />
      <path
         d="m 112.34661,539.21634 q -2.74713,0 -4.34114,-1.67315 -1.58271,-1.67315 -1.58271,-4.64638 0,-2.99584 1.46966,-4.75943 1.48096,-1.76359 3.96807,-1.76359 2.32884,0 3.68545,1.53749 1.35661,1.52618 1.35661,4.0359 l 0,1.18703 -8.53532,0 q 0.0565,2.18188 1.09659,3.31239 1.05137,1.1305 2.95062,1.1305 2.001,0 3.95677,-0.83657 l 0,1.67315 q -0.99484,0.42959 -1.88794,0.61047 -0.8818,0.19219 -2.13666,0.19219 z m -0.50873,-11.27115 q -1.49227,0 -2.38537,0.97224 -0.88179,0.97223 -1.04006,2.6906 l 6.4778,0 q 0,-1.77489 -0.79136,-2.71321 -0.79135,-0.94963 -2.26101,-0.94963 z"
         style="font-style:normal;font-variant:normal;font-weight:normal;font-stretch:normal;font-family:'Open Sans';-inkscape-font-specification:'Open Sans'"
         id="path4343" />
      <path
         d="m 125.85615,539.21634 q -1.20964,0 -2.21579,-0.4409 -0.99484,-0.4522 -1.67315,-1.37922 l -0.13566,0 q 0.13566,1.08529 0.13566,2.05752 l 0,5.09858 -1.87664,0 0,-17.95243 1.52619,0 0.26001,1.69576 0.0904,0 q 0.72353,-1.01746 1.68446,-1.46966 0.96093,-0.4522 2.20448,-0.4522 2.46451,0 3.7985,1.68445 1.34531,1.68446 1.34531,4.72552 0,3.05236 -1.36792,4.74812 -1.3566,1.68446 -3.77589,1.68446 z m -0.27132,-11.24854 q -1.89925,0 -2.74713,1.05137 -0.84788,1.05137 -0.87049,3.3463 l 0,0.41829 q 0,2.61147 0.87049,3.74197 0.87049,1.1192 2.79235,1.1192 1.60532,0 2.50973,-1.30008 0.91571,-1.30008 0.91571,-3.5837 0,-2.31754 -0.91571,-3.54979 -0.90441,-1.24356 -2.55495,-1.24356 z"
         style="font-style:normal;font-variant:normal;font-weight:normal;font-stretch:normal;font-family:'Open Sans';-inkscape-font-specification:'Open Sans'"
         id="path4345" />
      <path
         d="m 147.66362,523.9432 q -2.72452,0 -4.30723,1.82011 -1.57141,1.80881 -1.57141,4.96293 0,3.24455 1.51488,5.01944 1.52619,1.76359 4.34114,1.76359 1.72968,0 3.94547,-0.62178 l 0,1.68446 q -1.71837,0.64439 -4.2394,0.64439 -3.65153,0 -5.64122,-2.2158 -1.97839,-2.21579 -1.97839,-6.29691 0,-2.55495 0.94963,-4.47681 0.96093,-1.92186 2.75843,-2.96192 1.80881,-1.04007 4.25071,-1.04007 2.60016,0 4.54463,0.94963 l -0.81397,1.65054 q -1.87664,-0.8818 -3.75327,-0.8818 z"
         style="font-style:normal;font-variant:normal;font-weight:normal;font-stretch:normal;font-family:'Open Sans';-inkscape-font-specification:'Open Sans'"
         id="path4347" />
      <path
         d="m 162.52977,538.99023 -0.37307,-1.76358 -0.0904,0 q -0.92701,1.16442 -1.85403,1.5827 -0.91571,0.40699 -2.29492,0.40699 -1.84273,0 -2.8941,-0.94963 -1.04006,-0.94962 -1.04006,-2.70191 0,-3.75328 6.00298,-3.93416 l 2.10274,-0.0678 0,-0.76874 q 0,-1.45836 -0.63308,-2.14796 -0.62178,-0.70092 -2.00099,-0.70092 -1.5488,0 -3.50457,0.94963 l -0.57656,-1.43575 q 0.91571,-0.49742 2.00099,-0.78005 1.0966,-0.28262 2.19319,-0.28262 2.21579,0 3.27846,0.98354 1.07398,0.98354 1.07398,3.15411 l 0,8.45618 -1.39052,0 z m -4.2394,-1.32269 q 1.75229,0 2.74713,-0.96093 1.00615,-0.96093 1.00615,-2.6906 l 0,-1.1192 -1.87664,0.0791 q -2.2384,0.0791 -3.23324,0.70092 -0.98354,0.61047 -0.98354,1.91055 0,1.01746 0.61047,1.54879 0.62178,0.53134 1.72967,0.53134 z"
         style="font-style:normal;font-variant:normal;font-weight:normal;font-stretch:normal;font-family:'Open Sans';-inkscape-font-specification:'Open Sans'"
         id="path4349" />
      <path
         d="m 175.7906,535.61002 q 0,1.72968 -1.28877,2.668 -1.28878,0.93832 -3.61762,0.93832 -2.46451,0 -3.84372,-0.78005 l 0,-1.74098 q 0.8931,0.4522 1.91055,0.71222 1.02876,0.26001 1.97839,0.26001 1.46965,0 2.26101,-0.4635 0.79135,-0.47482 0.79135,-1.43575 0,-0.72352 -0.63308,-1.23225 -0.62178,-0.52003 -2.44189,-1.22095 -1.72968,-0.64438 -2.46451,-1.1192 -0.72352,-0.48611 -1.08528,-1.09659 -0.35046,-0.61047 -0.35046,-1.45835 0,-1.51488 1.23225,-2.38537 1.23225,-0.88179 3.38022,-0.88179 2.00099,0 3.91155,0.81396 l -0.667,1.52619 q -1.86534,-0.76875 -3.38022,-0.76875 -1.33399,0 -2.0123,0.41829 -0.6783,0.41829 -0.6783,1.15311 0,0.49743 0.24871,0.84788 0.26002,0.35046 0.82527,0.667 0.56525,0.31654 2.17057,0.91571 2.20449,0.80266 2.97323,1.61663 0.78005,0.81396 0.78005,2.04621 z"
         style="font-style:normal;font-variant:normal;font-weight:normal;font-stretch:normal;font-family:'Open Sans';-inkscape-font-specification:'Open Sans'"
         id="path4351" />
      <path
         d="m 184.06591,539.21634 q -2.74713,0 -4.34115,-1.67315 -1.58271,-1.67315 -1.58271,-4.64638 0,-2.99584 1.46966,-4.75943 1.48096,-1.76359 3.96808,-1.76359 2.32884,0 3.68545,1.53749 1.3566,1.52618 1.3566,4.0359 l 0,1.18703 -8.53532,0 q 0.0565,2.18188 1.0966,3.31239 1.05137,1.1305 2.95062,1.1305 2.00099,0 3.95677,-0.83657 l 0,1.67315 q -0.99485,0.42959 -1.88795,0.61047 -0.88179,0.19219 -2.13665,0.19219 z m -0.50873,-11.27115 q -1.49227,0 -2.38537,0.97224 -0.88179,0.97223 -1.04007,2.6906 l 6.4778,0 q 0,-1.77489 -0.79135,-2.71321 -0.79135,-0.94963 -2.26101,-0.94963 z"
         style="font-style:normal;font-variant:normal;font-weight:normal;font-stretch:normal;font-family:'Open Sans';-inkscape-font-specification:'Open Sans'"
         id="path4353" />
    </g>
    <g
       transform="matrix(0.57881903,0,0,0.57881903,270.87054,310.95922)"
       style="font-style:normal;font-weight:normal;font-size:40px;line-height:0%;font-family:sans-serif;letter-spacing:0px;word-spacing:0px;fill:#000000;fill-opacity:1;stroke:none;stroke-width:1px;stroke-linecap:butt;stroke-linejoin:miter;stroke-opacity:1"
       id="flowRoot4304-6">
      <path
         d="m 71.972656,433.07812 q 0,7.07032 -3.847656,10.82032 -3.828125,3.73047 -11.035156,3.73047 l -7.910157,0 0,-28.55469 8.75,0 q 6.660157,0 10.351563,3.6914 3.691406,3.69141 3.691406,10.3125 z m -3.515625,0.11719 q 0,-5.58594 -2.8125,-8.41797 -2.792969,-2.83203 -8.320312,-2.83203 l -4.824219,0 0,22.8125 4.042969,0 q 5.9375,0 8.925781,-2.91015 2.988281,-2.92969 2.988281,-8.65235 z"
         style="font-style:normal;font-variant:normal;font-weight:normal;font-stretch:normal;font-family:'Open Sans';-inkscape-font-specification:'Open Sans'"
         id="path4356" />
      <path
         d="m 81.074219,447.62891 -3.242188,0 0,-21.40625 3.242188,0 0,21.40625 z m -3.515625,-27.20704 q 0,-1.11328 0.546875,-1.62109 0.546875,-0.52734 1.367187,-0.52734 0.78125,0 1.347656,0.52734 0.566407,0.52734 0.566407,1.62109 0,1.09375 -0.566407,1.64063 -0.566406,0.52734 -1.347656,0.52734 -0.820312,0 -1.367187,-0.52734 -0.546875,-0.54688 -0.546875,-1.64063 z"
         style="font-style:normal;font-variant:normal;font-weight:normal;font-stretch:normal;font-family:'Open Sans';-inkscape-font-specification:'Open Sans'"
         id="path4358" />
      <path
         d="m 101.79688,441.78906 q 0,2.98828 -2.226568,4.60938 -2.226562,1.62109 -6.25,1.62109 -4.257812,0 -6.640625,-1.34766 l 0,-3.00781 q 1.542969,0.78125 3.300782,1.23047 1.777343,0.44922 3.417968,0.44922 2.539063,0 3.90625,-0.80078 1.367188,-0.82031 1.367188,-2.48047 0,-1.25 -1.09375,-2.12891 -1.074219,-0.89843 -4.21875,-2.10937 -2.988281,-1.11328 -4.257813,-1.9336 -1.25,-0.83984 -1.875,-1.89453 -0.605468,-1.05468 -0.605468,-2.51953 0,-2.61719 2.128906,-4.12109 2.128906,-1.52344 5.839844,-1.52344 3.457031,0 6.757816,1.40625 l -1.15235,2.63672 q -3.222654,-1.32813 -5.839841,-1.32813 -2.304688,0 -3.476563,0.72266 -1.171875,0.72266 -1.171875,1.99219 0,0.85937 0.429688,1.46484 0.449218,0.60547 1.425781,1.15235 0.976562,0.54687 3.75,1.58203 3.808594,1.38672 5.13672,2.79297 1.34766,1.40625 1.34766,3.53515 z"
         style="font-style:normal;font-variant:normal;font-weight:normal;font-stretch:normal;font-family:'Open Sans';-inkscape-font-specification:'Open Sans'"
         id="path4360" />
      <path
         d="m 115.60547,448.01953 q -4.64844,0 -7.20703,-2.85156 -2.53906,-2.8711 -2.53906,-8.10547 0,-5.37109 2.57812,-8.30078 2.59766,-2.92969 7.38281,-2.92969 1.54297,0 3.08594,0.33203 1.54297,0.33203 2.42188,0.78125 l -0.9961,2.75391 q -1.07422,-0.42969 -2.34375,-0.70313 -1.26953,-0.29297 -2.24609,-0.29297 -6.52344,0 -6.52344,8.32032 0,3.94531 1.58203,6.05468 1.60156,2.10938 4.72656,2.10938 2.67579,0 5.48829,-1.15234 l 0,2.87109 q -2.14844,1.11328 -5.41016,1.11328 z"
         style="font-style:normal;font-variant:normal;font-weight:normal;font-stretch:normal;font-family:'Open Sans';-inkscape-font-specification:'Open Sans'"
         id="path4362" />
    </g>
  </g>
</svg>
