<?xml version="1.0" encoding="UTF-8" standalone="no"?>
<!-- Created with Inkscape (http://www.inkscape.org/) -->

<svg
   xmlns:dc="http://purl.org/dc/elements/1.1/"
   xmlns:cc="http://creativecommons.org/ns#"
   xmlns:rdf="http://www.w3.org/1999/02/22-rdf-syntax-ns#"
   xmlns:svg="http://www.w3.org/2000/svg"
   xmlns="http://www.w3.org/2000/svg"
   xmlns:sodipodi="http://sodipodi.sourceforge.net/DTD/sodipodi-0.dtd"
   xmlns:inkscape="http://www.inkscape.org/namespaces/inkscape"
   width="117.24633mm"
   height="123.73655mm"
   viewBox="0 0 415.43975 438.43659"
   id="svg2"
   version="1.1"
   inkscape:version="0.91 r13725"
   sodipodi:docname="case.svg"
   inkscape:export-filename="/home/mj/GitHub/thesis-software-package/case.png"
   inkscape:export-xdpi="72"
   inkscape:export-ydpi="72">
  <sodipodi:namedview
     inkscape:snap-global="true"
     id="base"
     pagecolor="#ffffff"
     bordercolor="#666666"
     borderopacity="1.0"
     inkscape:pageopacity="0.0"
     inkscape:pageshadow="2"
     inkscape:zoom="0.70710678"
     inkscape:cx="122.81849"
     inkscape:cy="166.48548"
     inkscape:document-units="px"
     inkscape:current-layer="layer1"
     showgrid="false"
     inkscape:snap-bbox="true"
     inkscape:bbox-paths="true"
     inkscape:bbox-nodes="true"
     inkscape:snap-bbox-edge-midpoints="true"
     inkscape:snap-bbox-midpoints="true"
     inkscape:object-paths="true"
     inkscape:snap-intersection-paths="true"
     inkscape:object-nodes="true"
     inkscape:snap-smooth-nodes="true"
     inkscape:snap-midpoints="true"
     showguides="true"
     inkscape:guide-bbox="true"
     fit-margin-top="0"
     fit-margin-left="0"
     fit-margin-right="0"
     fit-margin-bottom="0"
     inkscape:window-width="1301"
     inkscape:window-height="744"
     inkscape:window-x="65"
     inkscape:window-y="24"
     inkscape:window-maximized="1">
    <sodipodi:guide
       position="0.050182319,2.1877951"
       orientation="1,0"
       id="guide4270" />
    <sodipodi:guide
       position="308.29855,-28.284282"
       orientation="0,1"
       id="guide4336" />
  </sodipodi:namedview>
  <defs
     id="defs4" />
  <metadata
     id="metadata7">
    <rdf:RDF>
      <cc:Work
         rdf:about="">
        <dc:format>image/svg+xml</dc:format>
        <dc:type
           rdf:resource="http://purl.org/dc/dcmitype/StillImage" />
        <dc:title></dc:title>
      </cc:Work>
    </rdf:RDF>
  </metadata>
  <g
     inkscape:label="Layer 1"
     inkscape:groupmode="layer"
     id="layer1"
     transform="translate(-31.038118,-103.56059)">
    <g
       id="g4276"
       transform="matrix(2.4602285,0,0,2.4602285,-36.994389,-849.92714)"
       inkscape:export-xdpi="72"
       inkscape:export-ydpi="72">
      <g
         transform="translate(-158.4544,194.53954)"
         id="g4262" />
    </g>
    <g
       id="g21346">
      <rect
         style="opacity:1;fill:#4d4d4d;fill-opacity:1;stroke:#4d4b4d;stroke-width:5;stroke-linecap:round;stroke-linejoin:round;stroke-miterlimit:4;stroke-dasharray:none;stroke-dashoffset:0;stroke-opacity:1"
         id="rect4266"
         width="50"
         height="127.85714"
         x="76.245659"
         y="408.54568"
         transform="matrix(2.4602285,0,0,2.4602285,-36.994389,-849.92714)" />
      <path
         inkscape:connector-curvature="0"
         id="path4203"
         d="m 303.20006,260.17832 a 51.770317,51.770317 0 0 0 -51.77149,51.76953 51.770317,51.770317 0 0 0 51.77149,51.77148 51.770317,51.770317 0 0 0 51.76953,-51.77148 51.770317,51.770317 0 0 0 -51.76953,-51.76953 z m 0,45.90429 a 5.8670235,5.8670235 0 0 1 5.86718,5.86524 5.8670235,5.8670235 0 0 1 -5.86718,5.86719 5.8670235,5.8670235 0 0 1 -5.86719,-5.86719 5.8670235,5.8670235 0 0 1 5.86719,-5.86524 z"
         style="opacity:1;fill:#b3b3b3;fill-opacity:1;stroke:none;stroke-width:20;stroke-linecap:round;stroke-linejoin:round;stroke-miterlimit:4;stroke-dasharray:none;stroke-dashoffset:0;stroke-opacity:1"
         transform="matrix(2.4602285,0,0,2.4602285,-426.82842,-371.31542)" />
      <path
         id="path4203-5"
         transform="translate(31.038113,103.56059)"
         d="M 288.07422 165.22266 A 127.36681 127.36681 0 0 0 160.70508 292.58789 A 127.36681 127.36681 0 0 0 288.07422 419.95703 L 288.07422 307.02148 A 14.434218 14.434218 0 0 1 273.64062 292.58789 A 14.434218 14.434218 0 0 1 288.07422 278.15625 L 288.07422 165.22266 z "
         style="opacity:0.1;fill:#ffffff;fill-opacity:1;stroke:none;stroke-width:20;stroke-linecap:round;stroke-linejoin:round;stroke-miterlimit:4;stroke-dasharray:none;stroke-dashoffset:0;stroke-opacity:1" />
      <path
         inkscape:connector-curvature="0"
         id="path4205"
         d="m 303.20006,295.91269 a 16.036171,16.036171 0 0 0 -16.03711,16.03516 16.036171,16.036171 0 0 0 16.03711,16.03711 16.036171,16.036171 0 0 0 16.03515,-16.03711 16.036171,16.036171 0 0 0 -16.03515,-16.03516 z m 0,4.67188 a 11.364215,11.364215 0 0 1 11.36328,11.36328 11.364215,11.364215 0 0 1 -11.36328,11.36523 11.364215,11.364215 0 0 1 -11.36524,-11.36523 11.364215,11.364215 0 0 1 11.36524,-11.36328 z"
         style="opacity:1;fill:#4d4d4d;fill-opacity:1;stroke:none;stroke-width:20;stroke-linecap:round;stroke-linejoin:round;stroke-miterlimit:4;stroke-dasharray:none;stroke-dashoffset:0;stroke-opacity:1"
         transform="matrix(2.4602285,0,0,2.4602285,-426.82842,-371.31542)" />
      <path
         style="color:#000000;font-style:normal;font-variant:normal;font-weight:normal;font-stretch:normal;font-size:medium;line-height:normal;font-family:sans-serif;text-indent:0;text-align:start;text-decoration:none;text-decoration-line:none;text-decoration-style:solid;text-decoration-color:#000000;letter-spacing:normal;word-spacing:normal;text-transform:none;direction:ltr;block-progression:tb;writing-mode:lr-tb;baseline-shift:baseline;text-anchor:start;white-space:normal;clip-rule:nonzero;display:inline;overflow:visible;visibility:visible;opacity:1;isolation:auto;mix-blend-mode:normal;color-interpolation:sRGB;color-interpolation-filters:linearRGB;solid-color:#000000;solid-opacity:1;fill:#4d4d4d;fill-opacity:1;fill-rule:evenodd;stroke:none;stroke-width:4.80000019;stroke-linecap:round;stroke-linejoin:round;stroke-miterlimit:4;stroke-dasharray:none;stroke-dashoffset:0;stroke-opacity:1;color-rendering:auto;image-rendering:auto;shape-rendering:auto;text-rendering:auto;enable-background:accumulate"
         d="m 116.65234,387.5625 a 2.4002401,2.4002401 0 0 0 -0.37304,0.0449 l -85.658206,16.99024 a 2.4002401,2.4002401 0 1 0 0.933594,4.70703 l 82.818362,-16.42774 1.52539,167.35157 -84.183596,-22.73633 a 2.4004368,2.4004368 0 1 0 -1.251953,4.63476 l 87.240229,23.56055 a 2.4002401,2.4002401 0 0 0 3.0254,-2.33789 l -1.58204,-173.41016 a 2.4002401,2.4002401 0 0 0 -2.49414,-2.37695 z"
         id="path4268"
         inkscape:connector-curvature="0"
         transform="matrix(2.4602285,0,0,2.4602285,-36.994389,-849.92714)" />
      <path
         style="fill:#cccccc;fill-opacity:1;fill-rule:evenodd;stroke:none;stroke-width:1px;stroke-linecap:butt;stroke-linejoin:miter;stroke-opacity:1"
         d="m 27.652922,407.63234 89.092738,-17.67117 0,172.98212 -89.062498,-24.05355 z"
         id="path4201"
         inkscape:connector-curvature="0"
         transform="matrix(2.4602285,0,0,2.4602285,-36.994389,-849.92714)" />
      <path
         style="fill:#4d4d4d;fill-opacity:1;fill-rule:evenodd;stroke:none;stroke-width:1px;stroke-linecap:butt;stroke-linejoin:miter;stroke-opacity:1"
         d="m 118.18785,388.06064 2.58851,2.77792 1.42053,171.63123 -3.15673,3.05472 C 118.75323,506.7107 118.4749,446.48018 118.18785,388.06064 Z"
         id="path4272"
         inkscape:connector-curvature="0"
         sodipodi:nodetypes="ccccc"
         transform="matrix(2.4602285,0,0,2.4602285,-36.994389,-849.92714)" />
      <path
         style="fill:#ffffff;fill-rule:evenodd;stroke:none;stroke-width:1px;stroke-linecap:butt;stroke-linejoin:miter;stroke-opacity:1;fill-opacity:1;opacity:0.2"
         d="m 31.112515,475.86476 88.828905,23.99046 2.20628,-364.98486 -91.0594,18.06125 z"
         id="path5348"
         inkscape:connector-curvature="0" />
      <path
         style="font-style:normal;font-weight:normal;font-size:31.25px;line-height:100%;font-family:sans-serif;text-align:center;letter-spacing:0px;word-spacing:0px;text-anchor:middle;fill:#000000;fill-opacity:1;stroke:none;stroke-width:1px;stroke-linecap:butt;stroke-linejoin:miter;stroke-opacity:1"
         d="m 140.03433,245.37504 c -0.28139,0.006 -0.56665,0.0263 -0.8561,0.0586 -2.90873,0.32416 -5.17963,1.72849 -6.82671,4.20117 -1.63774,2.44763 -2.45232,5.64107 -2.45232,9.5918 0,3.93975 0.81458,6.98784 2.45232,9.15429 1.64708,2.16779 3.91798,3.15775 6.82671,2.96289 1.1405,-0.0764 2.22605,-0.35135 3.25318,-0.82422 1.0395,-0.47513 2.02275,-1.1489 2.95492,-2.02539 l 0,-3.5664 c -0.89705,1.13831 -1.85023,2.00722 -2.86379,2.60937 -1.00139,0.59944 -2.06588,0.9389 -3.18966,1.01953 -2.20042,0.15789 -3.87335,-0.58412 -5.0289,-2.22461 -1.15096,-1.645 -1.72601,-4.09122 -1.72601,-7.34375 0,-3.26355 0.57505,-5.81305 1.72601,-7.65234 1.15555,-1.85773 2.82848,-2.90784 5.0289,-3.14258 1.12378,-0.11988 2.18827,0.0304 3.18966,0.45117 1.01356,0.42129 1.96674,1.11943 2.86379,2.09766 l 0,-3.59766 c -0.91461,-0.70077 -1.89047,-1.19228 -2.93007,-1.4707 -0.77042,-0.2172 -1.57777,-0.31702 -2.42193,-0.29883 z m 50.19786,1.19727 c -0.27367,-2.4e-4 -0.55386,0.0139 -0.8423,0.043 -2.55322,0.2572 -4.57131,1.43414 -6.06174,3.52539 -1.47343,2.06847 -2.20653,4.74384 -2.20653,8.03125 0,3.17982 0.77458,5.64425 2.32804,7.40039 1.57124,1.7642 3.71019,2.55909 6.42904,2.37695 1.09205,-0.0732 2.17343,-0.27928 3.24213,-0.61914 1.07229,-0.341 2.12079,-0.80583 3.14824,-1.39062 l 0,-3.19336 c -1.0171,0.7114 -2.04244,1.26054 -3.07367,1.65234 -1.01763,0.38979 -2.06584,0.62578 -3.14824,0.70313 -1.86003,0.13293 -3.30668,-0.36345 -4.34402,-1.48047 -1.02392,-1.12614 -1.59493,-2.82348 -1.71496,-5.09571 l 12.95197,-1.07031 0,-1.65234 c 0,-3.06421 -0.68549,-5.42132 -2.05465,-7.06446 -1.18389,-1.44318 -2.73762,-2.16434 -4.65331,-2.16601 z m -16.93146,1.73047 c -0.46422,0.003 -0.942,0.0286 -1.43328,0.0781 -1.97487,0.19894 -3.49075,0.85524 -4.5539,1.9668 -1.05947,1.10771 -1.58793,2.57964 -1.58793,4.42187 0,1.51576 0.35891,2.68047 1.07703,3.49414 0.71981,0.8039 1.89176,1.35108 3.52382,1.63868 l 0.92238,0.18945 c 1.64572,0.30187 2.71066,0.6694 3.19519,1.10352 0.49501,0.43404 0.74563,1.09437 0.74563,1.98242 0,0.95909 -0.34277,1.72865 -1.02179,2.31054 -0.67755,0.5688 -1.64099,0.899 -2.89141,0.98829 -0.92972,0.0664 -1.86546,-0.019 -2.80856,-0.25586 -0.94022,-0.2479 -1.89283,-0.64426 -2.85551,-1.19141 l 0,3.32031 c 1.01941,0.33835 1.99209,0.57822 2.9135,0.71485 0.93374,0.14812 1.83001,0.19254 2.69257,0.13476 2.08003,-0.13935 3.72131,-0.78687 4.91844,-1.94726 1.21155,-1.16559 1.8199,-2.6778 1.8199,-4.53321 0,-1.62943 -0.40586,-2.86508 -1.21787,-3.70117 -0.80015,-0.84658 -2.15259,-1.43421 -4.04853,-1.76758 l -0.90857,-0.17187 c -1.41971,-0.26472 -2.36074,-0.5859 -2.82789,-0.9668 -0.46646,-0.39204 -0.69869,-0.96358 -0.69869,-1.71289 0,-0.98348 0.32163,-1.75108 0.96933,-2.30469 0.65863,-0.55568 1.64429,-0.89666 2.96045,-1.02343 0.86769,-0.0836 1.70982,-0.0451 2.52411,0.11328 0.81643,0.15878 1.60472,0.437 2.36671,0.83984 l 0,-3.09961 c -0.74248,-0.28236 -1.55002,-0.46667 -2.4247,-0.55664 -0.4361,-0.0448 -0.88621,-0.067 -1.35043,-0.0645 z m 16.62768,1.11914 c 1.15378,0.009 2.09943,0.45705 2.83618,1.3457 0.85453,1.01734 1.29113,2.45036 1.31176,4.29102 l -9.9998,0.88281 c 0.14012,-1.91026 0.67261,-3.42985 1.59621,-4.5625 0.93639,-1.13695 2.18461,-1.78314 3.74751,-1.93359 0.17334,-0.0167 0.34331,-0.0247 0.50814,-0.0234 z m -34.35448,0.63476 c -0.25994,0.004 -0.52648,0.019 -0.80363,0.0469 -0.81706,0.0823 -1.65543,0.28143 -2.51307,0.5957 -0.85516,0.30199 -1.73352,0.71955 -2.63734,1.25195 l 0,2.89454 c 0.7515,-0.59319 1.53723,-1.06234 2.35565,-1.40235 0.82069,-0.34094 1.66447,-0.5529 2.53517,-0.63672 1.37467,-0.13233 2.44521,0.16573 3.20623,0.89844 0.77215,0.72218 1.15988,1.81517 1.15988,3.2793 l 0,0.31445 -3.54591,0.3125 c -2.2774,0.20066 -3.98085,0.89577 -5.12004,2.08594 -1.12592,1.18486 -1.6901,2.84681 -1.6901,4.98828 0,1.83554 0.45135,3.26965 1.35319,4.30664 0.91355,1.02818 2.14448,1.49273 3.6978,1.38867 1.23396,-0.0827 2.2811,-0.4278 3.13995,-1.03711 0.86132,-0.62257 1.58506,-1.54086 2.16511,-2.75781 l 0,2.93945 2.55173,-0.17382 0,-11.09766 c 0,-2.96383 -0.5568,-5.12317 -1.66801,-6.47266 -0.96876,-1.17647 -2.36703,-1.74924 -4.18661,-1.72461 z m -76.979996,2.53321 -2.68705,0.29687 -6.796333,10.03906 0,-9.28711 -2.013216,0.22266 0,21.88867 2.013216,-0.13672 0,-10.58203 7.279615,10.08789 2.756091,-0.1875 -8.138477,-11.2207 7.586154,-11.12109 z m 35.611016,1.64062 c -0.19229,-0.008 -0.38937,-7.8e-4 -0.59099,0.0195 -0.96799,0.0975 -1.80025,0.43935 -2.4965,1.0293 -0.6867,0.5771 -1.25316,1.41758 -1.70391,2.51953 l 0,-2.69726 -2.14578,0.21484 0,24.44336 2.14578,-0.11914 0,-9.42969 c 0.45075,1.02635 1.01721,1.77746 1.70391,2.25 0.69625,0.46256 1.52851,0.66054 2.4965,0.5957 1.61291,-0.10805 2.92724,-1.064 3.94083,-2.87304 1.02529,-1.81621 1.54098,-4.14955 1.54098,-6.99219 0,-2.84264 -0.51569,-5.08623 -1.54098,-6.73047 -0.88689,-1.43416 -2.00379,-2.1761 -3.34984,-2.23047 z m -15.235827,1.5293 c -0.200428,-0.004 -0.404503,0.006 -0.61584,0.0273 -1.872862,0.18866 -3.353696,1.17237 -4.44896,2.94727 -1.083508,1.75677 -1.626591,4.04133 -1.626591,6.86133 0,2.72771 0.569874,4.85133 1.712202,6.37109 1.154566,1.52575 2.725656,2.22341 4.719597,2.08984 0.800213,-0.0536 1.592669,-0.22202 2.374989,-0.5039 0.78457,-0.28269 1.55213,-0.67093 2.30319,-1.16211 l 0,-2.72852 c -0.74349,0.5989 -1.49346,1.05889 -2.24796,1.38477 -0.7449,0.32445 -1.512862,0.51558 -2.305946,0.57226 -1.363758,0.0975 -2.425321,-0.33825 -3.186902,-1.30468 -0.75206,-0.97457 -1.171086,-2.43571 -1.259296,-4.38477 l 9.488904,-0.78516 0,-1.4121 c 0,-2.61911 -0.50139,-4.64146 -1.50232,-6.0625 -0.866,-1.24866 -2.00207,-1.885 -3.405067,-1.91016 z M 113.5035,256.752 c 0.95338,0.0439 1.71854,0.58164 2.2949,1.61328 0.66822,1.17035 1.00247,2.84262 1.00247,5.01953 0,2.1769 -0.33425,3.9139 -1.00247,5.20703 -0.6587,1.27878 -1.56349,1.95882 -2.71467,2.04102 -1.14645,0.0819 -2.04829,-0.46319 -2.70362,-1.63477 -0.64601,-1.18 -0.96656,-2.84592 -0.96656,-4.99414 0,-2.14821 0.32055,-3.85897 0.96656,-5.13672 0.65533,-1.29209 1.55717,-1.99308 2.70362,-2.10352 0.1439,-0.0139 0.28357,-0.018 0.41977,-0.0117 z m -28.303784,0.39453 c -0.190431,-0.004 -0.384717,0.003 -0.585463,0.0234 -1.77928,0.17923 -3.187201,1.13566 -4.228031,2.86328 -1.029775,1.71013 -1.543743,3.93623 -1.543743,6.68554 0,2.65933 0.540933,4.72925 1.626591,6.21289 1.097182,1.48933 2.590561,2.17184 4.484862,2.04493 0.760108,-0.0509 1.510472,-0.21099 2.253477,-0.48438 0.745091,-0.27417 1.476804,-0.65158 2.18996,-1.12891 l 0,-2.66015 c -0.705976,0.58223 -1.418188,1.02947 -2.134728,1.3457 -0.707473,0.31486 -1.439379,0.50085 -2.192721,0.55469 -1.295523,0.0926 -2.303114,-0.33588 -3.02673,-1.2793 -0.714638,-0.9514 -1.111961,-2.37715 -1.195779,-4.27734 l 9.013909,-0.74414 0,-1.37696 c 0,-2.55207 -0.474568,-4.52302 -1.424993,-5.91015 -0.8224,-1.21893 -1.903605,-1.84117 -3.236611,-1.86914 z m 13.172899,1.0625 c 1.01624,-0.0978 1.835895,0.29305 2.452315,1.17187 0.62539,0.88011 0.94596,2.10905 0.96104,3.6836 l -7.332085,0.65039 c 0.102935,-1.63603 0.492561,-2.93239 1.170924,-3.89258 0.687481,-0.96331 1.601649,-1.50295 2.747806,-1.61328 z m -13.736269,1.32226 c 0.96534,-0.0929 1.739825,0.29053 2.32528,1.14844 0.593936,0.85913 0.89977,2.05737 0.914093,3.5918 l -6.964791,0.61718 c 0.09782,-1.59462 0.468317,-2.85656 1.112931,-3.79101 0.653225,-0.93741 1.523636,-1.46159 2.612487,-1.56641 z m 74.240474,0.25782 0,0.70898 c 0,2.07515 -0.4295,3.77239 -1.28415,5.0918 -0.84308,1.30351 -1.96371,2.00413 -3.35536,2.10351 -1.0056,0.0718 -1.8003,-0.1954 -2.38604,-0.80273 -0.57558,-0.61818 -0.86162,-1.48654 -0.86162,-2.60156 0,-1.39946 0.38591,-2.41996 1.15988,-3.06446 0.77598,-0.64619 2.17482,-1.05208 4.20593,-1.22265 l 2.52136,-0.21289 z m 26.89812,19.09179 c -0.50035,-0.002 -1.01701,0.0103 -1.55203,0.0371 l -12.4604,0.625 0,37.9707 8.10258,0.0938 0,-14.56055 2.3308,-0.0274 c 1.34879,-0.0159 2.43028,0.32773 3.23937,1.0293 0.82568,0.70325 1.63768,2.02543 2.43851,3.96875 l 4.0071,9.72852 9.20998,0.10742 -4.72788,-11.26953 c -0.95686,-2.26567 -1.90534,-3.94443 -2.8417,-5.03906 -0.9188,-1.10918 -1.95753,-1.81053 -3.12063,-2.10547 2.12329,-0.82545 3.71742,-2.08363 4.77484,-3.77735 1.07591,-1.69974 1.61278,-3.8572 1.61278,-6.46875 0,-3.77617 -1.0289,-6.49507 -3.08473,-8.14453 -1.77439,-1.43466 -4.42617,-2.15413 -7.92859,-2.16797 z m -21.41632,1.03321 -20.35586,1.01953 0,36.25976 20.80048,0.24024 0,-7.31641 -13.42144,0.006 0,-8.41211 12.187,-0.17773 0,-7.30078 -12.187,0.32421 0,-6.83789 12.97682,-0.49414 0,-7.31054 z m -24.0647,1.20507 -7.14706,0.35938 -7.11668,26.30078 -6.95927,-25.5957 -6.64168,0.33203 9.53862,34.42187 8.16609,0.0957 10.15998,-35.91407 z m -41.496017,1.47657 c -3.834407,0.19648 -6.806065,1.86625 -8.94763,4.99804 -2.114192,3.10647 -3.167571,7.30312 -3.167571,12.60742 0,5.2897 1.053379,9.43778 3.167571,12.4629 2.141565,3.04938 5.113223,4.6073 8.94763,4.65625 3.900297,0.0498 6.996317,-1.46913 9.256927,-4.57813 2.27928,-3.13468 3.42441,-7.4806 3.42441,-13.01758 0,-5.55227 -1.14513,-9.86318 -3.42441,-12.91015 -2.26061,-3.02201 -5.35663,-4.41861 -9.256927,-4.21875 z m -21.700764,1.14843 c -0.303923,-0.01 -0.610178,-0.006 -0.919617,0.01 -3.658773,0.18748 -6.522196,1.81041 -8.613475,4.85547 -2.074319,3.00633 -3.104054,7.00551 -3.104054,12.01758 0,4.99807 1.029735,8.95781 3.104054,11.89843 2.091279,2.95054 4.954702,4.46111 8.613475,4.50782 1.237756,0.0158 2.432606,-0.17097 3.581813,-0.56055 1.154276,-0.39129 2.268551,-0.98168 3.341554,-1.76953 l 0,-6.72656 c -1.083102,1.06229 -2.148189,1.83844 -3.192427,2.33007 -1.04009,0.48968 -2.131976,0.73385 -3.272512,0.73243 -2.030627,-0.003 -3.614788,-0.94602 -4.763785,-2.82032 -1.143908,-1.86599 -1.714962,-4.43087 -1.714962,-7.70117 0,-3.28446 0.571054,-5.8771 1.714962,-7.78711 1.148997,-1.91852 2.733158,-2.92131 4.763785,-3.00195 1.140536,-0.0453 2.232422,0.15581 3.272512,0.60547 1.044238,0.45145 2.109325,1.18836 3.192427,2.20898 l 0,-6.72851 c -1.073003,-0.74656 -2.187278,-1.2918 -3.341554,-1.63868 -0.861905,-0.25902 -1.750424,-0.4031 -2.662196,-0.43164 z m 106.239301,2.44532 c 1.74363,-0.0673 2.99771,0.26795 3.75303,1.0039 0.77172,0.73721 1.15712,1.99368 1.15712,3.76953 0,1.79327 -0.3854,3.09058 -1.15712,3.89258 -0.75532,0.7997 -2.0094,1.2181 -3.75303,1.25781 l -3.47135,0.0801 0,-9.86914 3.47135,-0.13476 z m -84.538537,2.66015 c 1.910667,-0.0759 3.398667,0.8429 4.457247,2.76172 1.06269,1.92627 1.59621,4.67359 1.59621,8.24024 0,3.55153 -0.53352,6.31409 -1.59621,8.28125 -1.05858,1.95954 -2.54658,2.93596 -4.457247,2.93359 -1.886622,-0.002 -3.340239,-0.96971 -4.368873,-2.89648 -1.024718,-1.91945 -1.532696,-4.61572 -1.532696,-8.08985 0,-3.48891 0.50798,-6.20714 1.532696,-8.16601 1.028634,-1.96636 2.482251,-2.98953 4.368873,-3.06446 z m -33.537042,38.7793 0,27.91406 5.178027,0.45899 c 2.901891,0.25739 5.096898,0.14613 6.572641,-0.33594 1.484153,-0.49761 2.765344,-1.44325 3.835882,-2.84375 0.940313,-1.22372 1.639662,-2.67014 2.098827,-4.33789 0.459967,-1.68357 0.690404,-3.62024 0.690404,-5.80274 0,-2.15668 -0.230437,-4.09913 -0.690404,-5.82617 -0.459165,-1.72403 -1.158514,-3.25479 -2.098827,-4.59375 -1.061633,-1.53136 -2.33282,-2.6304 -3.808266,-3.29687 -1.458379,-0.67514 -3.663624,-1.06073 -6.600257,-1.16016 l -5.178027,-0.17578 z m 22.404975,0.75976 0,29.14258 15.012134,1.33008 0,-5.83984 -9.660125,-0.75196 0,-6.74609 8.773645,0.57422 0,-5.83008 -8.773645,-0.48047 0,-5.48047 9.339775,0.41602 0,-5.83594 -14.691784,-0.49805 z m 27.756984,0.38282 c -2.7289,-0.0897 -4.80469,0.65687 -6.23849,2.23242 -1.4264,1.56741 -2.13748,3.85363 -2.13748,6.86133 0,2.40077 0.50839,4.3375 1.52717,5.8164 1.0325,1.48499 2.66816,2.6291 4.91843,3.42969 l 2.26453,0.82617 c 1.38637,0.50506 2.31088,1.03687 2.77266,1.5918 0.47279,0.55655 0.70973,1.31622 0.70973,2.28125 0,1.07529 -0.34195,1.87537 -1.03008,2.40039 -0.68645,0.52371 -1.67303,0.73474 -2.95493,0.63281 -1.25583,-0.0999 -2.55767,-0.46117 -3.90216,-1.08398 -1.32804,-0.63261 -2.69822,-1.51593 -4.11204,-2.64844 l 0,6.57617 c 1.41382,0.83828 2.83276,1.50508 4.26117,1.99805 1.4358,0.49552 2.87584,0.80819 4.3164,0.9375 3.0783,0.27631 5.3863,-0.34641 6.90404,-1.87695 1.5364,-1.55185 2.30871,-4.05202 2.30871,-7.49219 0,-2.61844 -0.55231,-4.6717 -1.65145,-6.1582 -1.09488,-1.48077 -2.9299,-2.63937 -5.49285,-3.47266 l -2.51031,-0.81836 c -1.1856,-0.39238 -2.00451,-0.82296 -2.45783,-1.29687 -0.44256,-0.48623 -0.66279,-1.13818 -0.66279,-1.95508 0,-1.0892 0.3326,-1.87713 0.99694,-2.36524 0.66594,-0.48927 1.69855,-0.70305 3.1013,-0.64257 1.0618,0.0458 2.19257,0.28591 3.39678,0.7246 1.20939,0.44057 2.45383,1.06983 3.73646,1.89258 l 0,-6.58203 c -1.44906,-0.56418 -2.84192,-0.99331 -4.18384,-1.28711 -1.33557,-0.30618 -2.62802,-0.48033 -3.88007,-0.52148 z m 15.00109,1.06445 0,31.48633 6.25229,0.55469 0,-31.83008 -6.25229,-0.21094 z m 25.29086,0.25977 c -4.47215,-0.14697 -7.94858,1.23813 -10.46099,4.13476 -2.49118,2.87213 -3.72818,6.88679 -3.72818,12.06055 0,5.11643 1.21597,9.26827 3.6619,12.4707 2.4664,3.21477 5.84261,5.02262 10.15998,5.41016 1.92988,0.17323 3.81176,0.0848 5.6475,-0.26953 1.84696,-0.35647 3.63786,-0.983 5.3741,-1.87891 l 0,-16.08984 -10.69021,-0.62305 0,5.67969 4.14242,0.28125 0,6.42968 c -0.48479,0.19831 -1.0333,0.33092 -1.64592,0.4004 -0.59963,0.0555 -1.25007,0.0559 -1.95246,0 -2.57303,-0.20459 -4.5449,-1.30119 -5.92367,-3.28516 -1.37238,-1.9748 -2.05464,-4.67766 -2.05464,-8.11328 0,-3.46462 0.70808,-6.08904 2.12645,-7.87891 1.43668,-1.81252 3.48653,-2.66242 6.16668,-2.54687 1.45495,0.0627 2.90888,0.38317 4.36611,0.96484 1.47624,0.58504 2.96824,1.44132 4.47106,2.57031 l 0,-6.91406 c -1.45485,-0.87216 -2.99792,-1.54283 -4.62847,-2.01367 -1.60998,-0.46794 -3.28732,-0.73173 -5.03166,-0.78906 z m 16.84861,1.16796 0,33.79688 6.82947,0.60547 0,-23.4375 10.44443,24.36523 8.5251,0.75586 0,-35.21289 -7.24924,-0.24609 0,23.88086 -10.48585,-24.23633 -8.06391,-0.27149 z m -102.395131,2.02344 1.781242,0.0801 c 2.055534,0.0916 3.630984,0.90139 4.719598,2.42969 1.093179,1.53472 1.643161,3.72058 1.643161,6.55859 0,2.85079 -0.552238,4.98751 -1.654207,6.40039 -1.088562,1.40761 -2.661726,2.02882 -4.708552,1.86914 l -1.781242,-0.13867 0,-17.19922 z"
         id="path4780"
         inkscape:connector-curvature="0" />
      <path
         style="font-style:normal;font-weight:normal;font-size:45px;line-height:0%;font-family:sans-serif;text-align:center;letter-spacing:0px;word-spacing:0px;text-anchor:middle;fill:#000000;fill-opacity:1;stroke:none;stroke-width:1px;stroke-linecap:butt;stroke-linejoin:miter;stroke-opacity:1"
         d="M 275.375 351.20898 C 274.72213 351.20898 274.39648 351.70633 274.39648 352.70117 C 274.39648 353.70639 274.72213 354.20898 275.375 354.20898 C 275.69625 354.20898 275.94493 354.07413 276.12109 353.80469 C 276.30763 353.53525 276.40234 353.16751 276.40234 352.70117 C 276.40234 352.22447 276.30763 351.85673 276.12109 351.59766 C 275.94493 351.33858 275.69625 351.20898 275.375 351.20898 z M 252.49414 351.56641 L 252.49414 374.29297 L 257.93555 374.29297 C 261.81132 374.29297 264.74798 373.31935 266.74805 371.37109 C 268.74811 369.41248 269.74805 366.52648 269.74805 362.71289 C 269.74805 359.07547 268.80073 356.30854 266.9043 354.41211 C 265.01822 352.51568 262.26182 351.56641 258.63477 351.56641 L 252.49414 351.56641 z M 316.59961 351.81055 C 314.95814 351.81055 313.65858 352.27166 312.69922 353.19141 C 311.73986 354.10676 311.25977 355.35227 311.25977 356.92773 C 311.25977 358.49879 311.73986 359.74432 312.69922 360.66406 C 313.65858 361.57942 314.95814 362.03711 316.59961 362.03711 C 317.1497 362.03711 317.67751 361.97478 318.18359 361.85156 C 318.68968 361.72834 319.1761 361.54477 319.64258 361.30273 L 319.64258 359.26367 C 319.1717 359.58493 318.70767 359.82108 318.25 359.9707 C 317.79232 360.12033 317.31077 360.19531 316.80469 360.19531 C 315.89813 360.19531 315.1853 359.90512 314.66602 359.32422 C 314.14672 358.74333 313.88672 357.9443 313.88672 356.92773 C 313.88672 355.90677 314.14672 355.10434 314.66602 354.52344 C 315.1853 353.94254 315.89813 353.65234 316.80469 353.65234 C 317.31077 353.65234 317.79232 353.72733 318.25 353.87695 C 318.70767 354.02657 319.1717 354.26273 319.64258 354.58398 L 319.64258 352.54492 C 319.1761 352.30288 318.68968 352.11931 318.18359 351.99609 C 317.67751 351.87287 317.1497 351.81055 316.59961 351.81055 z M 326.25781 351.81055 C 324.67795 351.81055 323.4373 352.26533 322.53516 353.17188 C 321.63741 354.07842 321.1875 355.33027 321.1875 356.92773 C 321.1875 358.52079 321.63741 359.76923 322.53516 360.67578 C 323.4373 361.58233 324.67795 362.03711 326.25781 362.03711 C 327.84208 362.03711 329.08272 361.58233 329.98047 360.67578 C 330.87822 359.76923 331.32617 358.52079 331.32617 356.92773 C 331.32617 355.33027 330.87822 354.07842 329.98047 353.17188 C 329.08272 352.26533 327.84208 351.81055 326.25781 351.81055 z M 331.69727 351.99023 L 335.34766 361.8457 L 338.37695 361.8457 L 342.02734 351.99023 L 339.47266 351.99023 L 336.86523 359.26367 L 334.25195 351.99023 L 331.69727 351.99023 z M 343.32812 351.99023 L 343.32812 361.8457 L 350.33203 361.8457 L 350.33203 359.92383 L 345.86914 359.92383 L 345.86914 357.66602 L 349.92969 357.66602 L 349.92969 355.74609 L 345.86914 355.74609 L 345.86914 353.91016 L 350.18555 353.91016 L 350.18555 351.99023 L 343.32812 351.99023 z M 352.56836 351.99023 L 352.56836 361.8457 L 355.11133 361.8457 L 355.11133 358.11523 L 355.83008 358.11523 C 356.24374 358.11523 356.57387 358.20629 356.82031 358.38672 C 357.07115 358.56715 357.31851 358.9036 357.56055 359.39648 L 358.76172 361.8457 L 361.4668 361.8457 L 360.08789 359.04688 C 359.80624 358.47918 359.52725 358.05654 359.25 357.7793 C 358.97715 357.49765 358.66601 357.31749 358.31836 357.23828 C 358.95207 357.04025 359.42583 356.73057 359.73828 356.3125 C 360.05513 355.89443 360.21289 355.36029 360.21289 354.70898 C 360.21289 353.76723 359.91003 353.07825 359.30273 352.64258 C 358.69983 352.20691 357.74939 351.99023 356.45117 351.99023 L 352.56836 351.99023 z M 254.08008 352.9668 L 258.26172 352.9668 C 261.46389 352.9668 263.88744 353.78978 265.53516 355.4375 C 267.19324 357.07486 268.02344 359.5214 268.02344 362.77539 C 268.02344 369.52172 264.62958 372.89453 257.8418 372.89453 L 254.08008 372.89453 L 254.08008 352.9668 z M 326.25781 353.65234 C 327.03675 353.65234 327.63954 353.93963 328.06641 354.51172 C 328.49328 355.08381 328.70703 355.88916 328.70703 356.92773 C 328.70703 357.9619 328.49328 358.76384 328.06641 359.33594 C 327.63954 359.90803 327.03675 360.19531 326.25781 360.19531 C 325.48329 360.19531 324.88194 359.90803 324.45508 359.33594 C 324.0282 358.76384 323.81445 357.9619 323.81445 356.92773 C 323.81445 355.88916 324.0282 355.08381 324.45508 354.51172 C 324.88194 353.93963 325.48329 353.65234 326.25781 353.65234 z M 355.11133 353.83203 L 356.17969 353.83203 C 356.71218 353.83203 357.09343 353.92746 357.32227 354.12109 C 357.55551 354.31472 357.67188 354.63706 357.67188 355.08594 C 357.67187 355.53921 357.55551 355.86447 357.32227 356.0625 C 357.09343 356.26053 356.71218 356.35938 356.17969 356.35938 L 355.11133 356.35938 L 355.11133 353.83203 z M 286.76953 357.07031 C 284.86274 357.07031 283.37599 357.43805 282.30859 358.17383 C 281.25157 358.9096 280.72266 359.90954 280.72266 361.17383 C 280.72266 361.97178 280.89435 362.64938 281.23633 363.20898 C 281.58867 363.75822 282.10706 364.25556 282.79102 364.70117 C 283.47498 365.13642 284.66044 365.66007 286.34961 366.27148 C 287.92479 366.83109 289.05432 367.4021 289.73828 367.98242 C 290.4326 368.56276 290.7793 369.27719 290.7793 370.12695 C 290.7793 371.04926 290.3451 371.79 289.47461 372.34961 C 288.61448 372.89885 287.35009 373.17383 285.68164 373.17383 C 283.79557 373.17383 282.00227 372.7482 280.30273 371.89844 L 280.30273 373.5625 C 281.6292 374.25683 283.4225 374.60352 285.68164 374.60352 C 287.7957 374.60352 289.42783 374.19894 290.57812 373.39062 C 291.72842 372.57195 292.30273 371.40753 292.30273 369.89453 C 292.30273 369.13803 292.12774 368.47952 291.77539 367.91992 C 291.43341 367.36032 290.91502 366.86298 290.2207 366.42773 C 289.52638 365.98212 288.4179 365.48479 286.89453 364.93555 C 285.07064 364.28268 283.84308 363.69258 283.21094 363.16406 C 282.58916 362.63554 282.27734 361.92968 282.27734 361.04883 C 282.27734 360.24051 282.68192 359.60832 283.49023 359.15234 C 284.29855 358.69638 285.39125 358.46875 286.76953 358.46875 C 288.18926 358.46875 289.72863 358.81019 291.38672 359.49414 L 291.96094 358.0957 C 290.32358 357.41174 288.59342 357.07031 286.76953 357.07031 z M 303.66602 357.07031 C 301.19962 357.07031 299.25762 357.8512 297.83789 359.41602 C 296.41816 360.97047 295.70703 363.14729 295.70703 365.94531 C 295.70703 368.67079 296.39185 370.79499 297.75977 372.31836 C 299.12769 373.84173 301.01901 374.60352 303.43359 374.60352 C 305.18494 374.60352 306.59997 374.33906 307.67773 373.81055 L 307.67773 372.38086 C 306.36163 372.9301 304.93607 373.20508 303.40234 373.20508 C 301.48518 373.20508 299.99317 372.56236 298.92578 371.27734 C 297.85839 369.98196 297.32422 368.19393 297.32422 365.91406 C 297.32422 363.50984 297.85839 361.67114 298.92578 360.39648 C 299.99317 359.11147 301.56216 358.46875 303.63477 358.46875 C 304.71252 358.46875 305.98217 358.71216 307.44336 359.19922 L 307.86328 357.83203 C 306.52645 357.32424 305.1272 357.07031 303.66602 357.07031 z M 274.61328 357.39648 L 274.61328 374.29297 L 276.15234 374.29297 L 276.15234 357.39648 L 274.61328 357.39648 z M 332.85547 365.24805 C 331.7993 365.24805 330.98907 365.48176 330.42578 365.95117 C 329.86249 366.42058 329.58203 367.09252 329.58203 367.96484 C 329.58203 368.66114 329.78264 369.21427 330.18555 369.625 C 330.59237 370.03574 331.23314 370.33372 332.10938 370.52148 L 332.98438 370.7168 C 333.51637 370.83415 333.87084 370.96659 334.04688 371.11523 C 334.22681 371.26388 334.31641 371.47422 334.31641 371.74805 C 334.31641 372.05316 334.18591 372.28883 333.92383 372.45312 C 333.66174 372.61742 333.2839 372.69922 332.79102 372.69922 C 332.30596 372.69922 331.80152 372.62521 331.27734 372.47656 C 330.75708 372.32401 330.21758 372.09807 329.6582 371.80078 L 329.6582 373.70898 C 330.21758 373.9163 330.77656 374.07211 331.33594 374.17773 C 331.89532 374.28335 332.45234 374.33594 333.00781 374.33594 C 334.18525 374.33594 335.05974 374.10222 335.63086 373.63281 C 336.20589 373.15949 336.49414 372.43886 336.49414 371.47266 C 336.49414 370.73724 336.28769 370.17048 335.87695 369.77148 C 335.46622 369.37248 334.77481 369.07449 333.80078 368.87891 L 332.83789 368.68555 C 332.38021 368.59167 332.06275 368.48065 331.88672 368.35156 C 331.7146 368.21856 331.62891 368.03549 331.62891 367.80078 C 331.62891 367.48784 331.75744 367.25607 332.01562 367.10742 C 332.2738 366.95878 332.67307 366.88477 333.21289 366.88477 C 333.61972 366.88477 334.05209 366.9393 334.50977 367.04883 C 334.96744 367.15836 335.43682 367.32001 335.91797 367.53516 L 335.91797 365.68164 C 335.37424 365.53691 334.84837 365.42979 334.33984 365.35938 C 333.83132 365.28505 333.33662 365.24805 332.85547 365.24805 z M 347.33008 365.24805 C 345.82014 365.24805 344.63208 365.65316 343.76367 366.46289 C 342.89527 367.27262 342.46094 368.38278 342.46094 369.79492 C 342.46094 371.19142 342.88747 372.29767 343.74023 373.11523 C 344.59299 373.92887 345.74794 374.33594 347.20703 374.33594 C 347.85247 374.33594 348.47962 374.26777 349.08594 374.13086 C 349.69226 373.99395 350.27656 373.78945 350.83984 373.51562 L 350.83984 369.30273 L 347.31836 369.30273 L 347.31836 370.81641 L 348.69727 370.81641 L 348.69727 372.51758 C 348.53689 372.58019 348.35576 372.62694 348.15234 372.6582 C 347.95284 372.6856 347.73666 372.69922 347.50195 372.69922 C 346.63746 372.69922 345.96941 372.44602 345.5 371.94141 C 345.03059 371.43679 344.79688 370.72201 344.79688 369.79492 C 344.79688 368.86001 345.03838 368.14133 345.52344 367.64062 C 346.0124 367.13601 346.70772 366.88477 347.60742 366.88477 C 348.09248 366.88477 348.5755 366.95293 349.05664 367.08984 C 349.5417 367.22675 350.02861 367.4332 350.51758 367.71094 L 350.51758 365.89844 C 350.04426 365.68329 349.53981 365.52164 349.00391 365.41211 C 348.47191 365.30258 347.91293 365.24805 347.33008 365.24805 z M 311.63281 365.40625 L 311.63281 374.16602 L 314.01367 374.16602 C 315.32802 374.16602 316.31548 374.07253 316.97266 373.88477 C 317.62984 373.69309 318.1927 373.36978 318.66211 372.91602 C 319.07284 372.52093 319.37667 372.06518 319.57617 371.54883 C 319.77567 371.02856 319.87695 370.43843 319.87695 369.77734 C 319.87695 369.12408 319.77567 368.53979 319.57617 368.02344 C 319.37667 367.50708 319.07284 367.05134 318.66211 366.65625 C 318.19661 366.20249 317.63764 365.88113 316.98438 365.69336 C 316.33502 365.50169 315.34367 365.40625 314.01367 365.40625 L 311.63281 365.40625 z M 321.60742 365.40625 L 321.60742 374.16602 L 327.83203 374.16602 L 327.83203 372.45898 L 323.86719 372.45898 L 323.86719 370.45117 L 327.47461 370.45117 L 327.47461 368.74414 L 323.86719 368.74414 L 323.86719 367.11328 L 327.70312 367.11328 L 327.70312 365.40625 L 321.60742 365.40625 z M 338.48242 365.40625 L 338.48242 374.16602 L 340.74219 374.16602 L 340.74219 365.40625 L 338.48242 365.40625 z M 352.82227 365.40625 L 352.82227 374.16602 L 354.96484 374.16602 L 354.96484 368.1582 L 358.15039 374.16602 L 360.67383 374.16602 L 360.67383 365.40625 L 358.5332 365.40625 L 358.5332 371.41406 L 355.3457 365.40625 L 352.82227 365.40625 z M 313.89062 367.11328 L 314.70117 367.11328 C 315.62826 367.11328 316.3333 367.33921 316.81836 367.79297 C 317.30341 368.24674 317.54688 368.90894 317.54688 369.77734 C 317.54688 370.64967 317.30147 371.31381 316.8125 371.77148 C 316.32744 372.22916 315.62435 372.45898 314.70117 372.45898 L 313.89062 372.45898 L 313.89062 367.11328 z "
         transform="translate(31.038118,103.56059)"
         id="path4828" />
    </g>
  </g>
</svg>
